<?xml version="1.0" ?><!DOCTYPE svg  PUBLIC '-//W3C//DTD SVG 1.1//EN'  'http://www.w3.org/Graphics/SVG/1.1/DTD/svg11.dtd'><svg height="512px" style="enable-background:new 0 0 512 512;" version="1.1" viewBox="0 0 512 512" width="512px" xml:space="preserve" xmlns="http://www.w3.org/2000/svg" xmlns:xlink="http://www.w3.org/1999/xlink"><g id="comp_x5F_211-medium"><g><path d="    M86.742,151.812c0.55-5.41-1.56-10.821-5.595-14.49L39.785,87.429V80h128.583l99.417,200l87.403-200H477.81v7.429l-35.401,33.934    c-3.026,2.293-4.585,6.144-3.943,9.905v249.463c-0.642,3.76,0.917,7.612,3.943,9.906l34.576,33.933V432H303.003v-7.43    l35.861-34.759c3.485-3.485,3.485-4.587,3.485-9.906V190l-99.693,241.357h-13.482L116.99,178.318v169.581    c-1.01,7.152,1.374,14.308,6.42,19.442L170,423.838v7.429H34.19v-7.339l46.591-56.587c4.952-5.135,7.245-12.381,5.961-19.442    V151.812z" style="fill:none;stroke:#000000;stroke-width:20;stroke-linecap:round;stroke-linejoin:round;stroke-miterlimit:10;"/></g></g><g id="Layer_1"/></svg>